<?xml version="1.0" encoding="utf-8"?>
<!-- Generator: Adobe Illustrator 22.0.1, SVG Export Plug-In . SVG Version: 6.00 Build 0)  -->
<svg version="1.1" id="Layer_1" xmlns="http://www.w3.org/2000/svg" xmlns:xlink="http://www.w3.org/1999/xlink" x="0px" y="0px"
	 viewBox="0 0 400 100" style="enable-background:new 0 0 400 100;" xml:space="preserve">
<style type="text/css">
	.st0{fill:#E2A932;}
	.st1{fill:#512F2C;}
</style>
<g>
	<path class="st0" d="M2.9,63.4h10.9C13.4,62,13,60.7,13,59c-0.1-2.2,0-37.4,0-56c3.1,0,6.8,0,9.2,0c8.1,0,14.2,6.2,15.1,13.9
		c0.6,5.3-1.6,11.3-5.3,16.6C45.5,28,46.8,15.8,39.9,7.7c-4-4.8-11.2-7.9-19.1-7.9C14.7-0.2,6.4-0.1,0-0.1C2.2,3,4.9,4.2,4.9,9.7
		c0,9.3,0,34.8,0,45.2C4.9,58.4,4.5,61,2.9,63.4z"/>
	<path class="st0" d="M43.5,59.6c-5-3.9-9-6-13.3-9.5c-3.2-2.7-7.2-7.3-7.7-11.6c-1.3-9.9,3.3-14.1,9-20.8
		c-9.3,3.1-14.9,12.2-14.2,22c0.5,7,3.7,11.1,8.7,15.7S37,62,41.3,68.2c6.7,9.5,3,23.4-9.7,26.2c-8.6,2-16.2-0.6-21.9-7.6
		c-4-4.8-3.8-12,0.9-16.1c2.9-2.5,9.2-2.3,12.8-2.6C4.2,62.3-2.4,80.8,8,92c7.1,7.7,19.1,9.5,28.9,6.2
		C53.8,92.5,56.6,69.9,43.5,59.6z"/>
</g>
<g>
	<g>
		<path class="st1" d="M64.1,70.9c-1.3,0-2.4,0.4-3.1,1.3c-0.8,0.8-1.1,2-1.1,3.5c0,1.5,0.4,2.7,1.1,3.5c0.7,0.8,1.7,1.3,3.1,1.3
			c0.9,0,1.7-0.1,2.4-0.3v0.7c-0.7,0.2-1.6,0.4-2.6,0.4c-1.5,0-2.7-0.5-3.5-1.4c-0.9-1-1.3-2.3-1.3-4c0-1.1,0.2-2,0.6-2.8
			c0.4-0.8,1-1.5,1.8-1.9c0.8-0.4,1.7-0.7,2.7-0.7c1,0,2,0.2,2.8,0.6l-0.3,0.7C65.7,71.1,64.9,70.9,64.1,70.9z"/>
		<path class="st1" d="M78,75.6c0,1.7-0.4,3-1.3,4c-0.8,1-2,1.5-3.5,1.5c-1.5,0-2.6-0.5-3.5-1.5c-0.8-1-1.3-2.3-1.3-4
			c0-1.7,0.4-3,1.3-4c0.8-1,2-1.5,3.5-1.5c1.5,0,2.6,0.5,3.5,1.5C77.6,72.6,78,74,78,75.6z M69.4,75.6c0,1.5,0.3,2.7,1,3.5
			c0.7,0.8,1.6,1.2,2.9,1.2c1.3,0,2.2-0.4,2.9-1.2c0.7-0.8,1-2,1-3.5c0-1.5-0.3-2.7-1-3.5c-0.7-0.8-1.6-1.2-2.9-1.2
			c-1.3,0-2.2,0.4-2.9,1.2C69.7,73,69.4,74.1,69.4,75.6z"/>
		<path class="st1" d="M88.5,80.9h-0.7l-6.3-9.4h-0.1c0.1,1.1,0.1,2,0.1,2.5v6.9h-0.7V70.4h0.7l6.3,9.4h0c0-0.9-0.1-1.7-0.1-2.5
			v-6.9h0.7V80.9z"/>
		<path class="st1" d="M99.6,80.9h-0.7l-6.3-9.4h-0.1c0.1,1.1,0.1,2,0.1,2.5v6.9h-0.7V70.4h0.7l6.3,9.4h0c0-0.9-0.1-1.7-0.1-2.5
			v-6.9h0.7V80.9z"/>
		<path class="st1" d="M108.7,80.9H103V70.4h5.8V71h-5v4h4.8v0.7h-4.8v4.5h5V80.9z"/>
		<path class="st1" d="M116,70.9c-1.3,0-2.4,0.4-3.1,1.3c-0.8,0.8-1.1,2-1.1,3.5c0,1.5,0.4,2.7,1.1,3.5c0.7,0.8,1.7,1.3,3.1,1.3
			c0.9,0,1.7-0.1,2.4-0.3v0.7c-0.7,0.2-1.6,0.4-2.6,0.4c-1.5,0-2.7-0.5-3.5-1.4c-0.9-1-1.3-2.3-1.3-4c0-1.1,0.2-2,0.6-2.8
			c0.4-0.8,1-1.5,1.8-1.9c0.8-0.4,1.7-0.7,2.7-0.7c1,0,2,0.2,2.8,0.6l-0.3,0.7C117.7,71.1,116.9,70.9,116,70.9z"/>
		<path class="st1" d="M123.8,80.9h-0.7v-9.9h-3.4v-0.7h7.6v0.7h-3.4V80.9z"/>
		<path class="st1" d="M129.2,80.9V70.4h0.7v10.6H129.2z"/>
		<path class="st1" d="M141,80.9h-0.7l-6.3-9.4h-0.1c0.1,1.1,0.1,2,0.1,2.5v6.9h-0.7V70.4h0.7l6.3,9.4h0c0-0.9-0.1-1.7-0.1-2.5v-6.9
			h0.7V80.9z"/>
		<path class="st1" d="M148.5,75.6h3.9v4.8c-1,0.4-2.2,0.7-3.5,0.7c-1.7,0-2.9-0.5-3.8-1.4c-0.9-0.9-1.3-2.3-1.3-4
			c0-1.1,0.2-2,0.7-2.9c0.4-0.8,1.1-1.5,1.9-1.9s1.8-0.7,2.8-0.7c1.2,0,2.2,0.2,3.1,0.6l-0.3,0.7c-0.9-0.4-1.9-0.6-2.9-0.6
			c-1.4,0-2.5,0.4-3.3,1.3c-0.8,0.9-1.2,2-1.2,3.5c0,1.6,0.4,2.8,1.2,3.6c0.8,0.8,1.9,1.2,3.4,1.2c1,0,1.8-0.1,2.5-0.4v-3.7h-3.1
			V75.6z"/>
		<path class="st1" d="M166,73.4c0,1-0.3,1.8-1,2.4c-0.7,0.5-1.7,0.8-3,0.8h-1.6v4.4h-0.7V70.4h2.6C164.8,70.4,166,71.4,166,73.4z
			 M160.4,75.9h1.5c1.2,0,2.1-0.2,2.6-0.6c0.5-0.4,0.8-1,0.8-1.9c0-0.8-0.3-1.4-0.8-1.8c-0.5-0.4-1.3-0.6-2.3-0.6h-1.8V75.9z"/>
		<path class="st1" d="M174.5,80.9h-5.8V70.4h5.8V71h-5v4h4.8v0.7h-4.8v4.5h5V80.9z"/>
		<path class="st1" d="M186.2,75.6c0,1.7-0.4,3-1.3,4c-0.8,1-2,1.5-3.5,1.5c-1.5,0-2.6-0.5-3.5-1.5c-0.8-1-1.3-2.3-1.3-4
			c0-1.7,0.4-3,1.3-4c0.8-1,2-1.5,3.5-1.5c1.5,0,2.6,0.5,3.5,1.5C185.7,72.6,186.2,74,186.2,75.6z M177.5,75.6c0,1.5,0.3,2.7,1,3.5
			c0.7,0.8,1.6,1.2,2.9,1.2c1.3,0,2.2-0.4,2.9-1.2c0.7-0.8,1-2,1-3.5c0-1.5-0.3-2.7-1-3.5c-0.7-0.8-1.6-1.2-2.9-1.2
			c-1.3,0-2.2,0.4-2.9,1.2C177.8,73,177.5,74.1,177.5,75.6z"/>
		<path class="st1" d="M195.3,73.4c0,1-0.3,1.8-1,2.4c-0.7,0.5-1.7,0.8-3,0.8h-1.6v4.4H189V70.4h2.6
			C194.1,70.4,195.3,71.4,195.3,73.4z M189.7,75.9h1.5c1.2,0,2.1-0.2,2.6-0.6c0.5-0.4,0.8-1,0.8-1.9c0-0.8-0.3-1.4-0.8-1.8
			c-0.5-0.4-1.3-0.6-2.3-0.6h-1.8V75.9z"/>
		<path class="st1" d="M198,80.9V70.4h0.7v9.9h5v0.7H198z"/>
		<path class="st1" d="M211.8,80.9H206V70.4h5.8V71h-5v4h4.8v0.7h-4.8v4.5h5V80.9z"/>
		<path class="st1" d="M218.7,80.9V70.4h0.7v10.6H218.7z"/>
		<path class="st1" d="M230.5,80.9h-0.7l-6.3-9.4h-0.1c0.1,1.1,0.1,2,0.1,2.5v6.9h-0.7V70.4h0.7l6.3,9.4h0c0-0.9-0.1-1.7-0.1-2.5
			v-6.9h0.7V80.9z"/>
		<path class="st1" d="M245.8,80.9H245v-5.2h-6.2v5.2h-0.7V70.4h0.7v4.7h6.2v-4.7h0.7V80.9z"/>
		<path class="st1" d="M258,75.6c0,1.7-0.4,3-1.3,4c-0.8,1-2,1.5-3.5,1.5c-1.5,0-2.6-0.5-3.5-1.5c-0.8-1-1.3-2.3-1.3-4
			c0-1.7,0.4-3,1.3-4c0.8-1,2-1.5,3.5-1.5c1.5,0,2.6,0.5,3.5,1.5S258,74,258,75.6z M249.4,75.6c0,1.5,0.3,2.7,1,3.5
			c0.7,0.8,1.6,1.2,2.9,1.2c1.3,0,2.2-0.4,2.9-1.2c0.7-0.8,1-2,1-3.5c0-1.5-0.3-2.7-1-3.5c-0.7-0.8-1.6-1.2-2.9-1.2
			c-1.3,0-2.2,0.4-2.9,1.2C249.7,73,249.4,74.1,249.4,75.6z"/>
		<path class="st1" d="M266.7,78.2c0,0.9-0.3,1.6-1,2.1s-1.5,0.8-2.6,0.8c-1.3,0-2.3-0.1-3-0.4v-0.7c0.8,0.3,1.7,0.5,2.9,0.5
			c0.9,0,1.6-0.2,2.1-0.6s0.8-0.9,0.8-1.6c0-0.4-0.1-0.7-0.3-1c-0.2-0.3-0.4-0.5-0.8-0.7c-0.4-0.2-0.9-0.5-1.7-0.7
			c-1.1-0.4-1.8-0.8-2.2-1.2c-0.4-0.4-0.6-1-0.6-1.7c0-0.8,0.3-1.4,0.9-1.9c0.6-0.5,1.4-0.7,2.4-0.7c1,0,1.9,0.2,2.8,0.6l-0.3,0.6
			c-0.9-0.4-1.7-0.6-2.5-0.6c-0.8,0-1.4,0.2-1.9,0.5s-0.7,0.9-0.7,1.5c0,0.4,0.1,0.7,0.2,1c0.1,0.3,0.4,0.5,0.7,0.7
			c0.3,0.2,0.9,0.4,1.7,0.7c0.8,0.3,1.4,0.6,1.9,0.8c0.4,0.3,0.7,0.6,0.9,0.9C266.6,77.3,266.7,77.7,266.7,78.2z"/>
		<path class="st1" d="M275.7,73.4c0,1-0.3,1.8-1,2.4c-0.7,0.5-1.7,0.8-3,0.8H270v4.4h-0.7V70.4h2.6
			C274.4,70.4,275.7,71.4,275.7,73.4z M270,75.9h1.5c1.2,0,2.1-0.2,2.6-0.6c0.5-0.4,0.8-1,0.8-1.9c0-0.8-0.3-1.4-0.8-1.8
			c-0.5-0.4-1.3-0.6-2.3-0.6H270V75.9z"/>
		<path class="st1" d="M278.3,80.9V70.4h0.7v10.6H278.3z"/>
		<path class="st1" d="M285.2,80.9h-0.7v-9.9H281v-0.7h7.6v0.7h-3.4V80.9z"/>
		<path class="st1" d="M295.7,77.2h-4.3l-1.5,3.7h-0.8l4.3-10.6h0.5l4.2,10.6h-0.8L295.7,77.2z M291.6,76.5h3.8l-1.4-3.8
			c-0.1-0.3-0.3-0.7-0.4-1.2c-0.1,0.5-0.3,0.9-0.4,1.3L291.6,76.5z"/>
		<path class="st1" d="M299.8,80.9V70.4h0.7v9.9h5v0.7H299.8z"/>
		<path class="st1" d="M307.8,80.9V70.4h0.7v10.6H307.8z"/>
		<path class="st1" d="M314.7,80.9h-0.7v-9.9h-3.4v-0.7h7.6v0.7h-3.4V80.9z"/>
		<path class="st1" d="M322.5,76.1l3.1-5.8h0.8l-3.5,6.5v4.1h-0.8v-4l-3.5-6.5h0.8L322.5,76.1z"/>
		<path class="st1" d="M332.5,70.4h2.9c1.3,0,2.3,0.2,2.9,0.7c0.6,0.4,0.9,1.1,0.9,2c0,0.6-0.2,1.1-0.6,1.5
			c-0.4,0.4-0.9,0.7-1.6,0.8v0c0.8,0.1,1.5,0.4,1.9,0.8c0.4,0.4,0.6,1,0.6,1.7c0,1-0.3,1.7-1,2.3c-0.6,0.5-1.6,0.8-2.7,0.8h-3.2
			V70.4z M333.2,75.1h2.3c1,0,1.7-0.2,2.2-0.5c0.5-0.3,0.7-0.8,0.7-1.6c0-0.7-0.3-1.2-0.8-1.5c-0.5-0.3-1.3-0.5-2.3-0.5h-2.1V75.1z
			 M333.2,75.7v4.6h2.5c2,0,2.9-0.8,2.9-2.4c0-1.5-1-2.2-3.1-2.2H333.2z"/>
		<path class="st1" d="M349.9,70.4v6.8c0,1.2-0.4,2.2-1.1,2.9c-0.7,0.7-1.7,1-2.9,1c-1.2,0-2.2-0.3-2.9-1c-0.7-0.7-1-1.6-1-2.9v-6.8
			h0.7v6.8c0,1,0.3,1.8,0.8,2.4c0.6,0.6,1.4,0.9,2.4,0.9c1,0,1.8-0.3,2.3-0.8c0.6-0.6,0.8-1.3,0.8-2.3v-6.9H349.9z"/>
		<path class="st1" d="M359,78.2c0,0.9-0.3,1.6-1,2.1s-1.5,0.8-2.6,0.8c-1.3,0-2.3-0.1-3-0.4v-0.7c0.8,0.3,1.7,0.5,2.9,0.5
			c0.9,0,1.6-0.2,2.1-0.6s0.8-0.9,0.8-1.6c0-0.4-0.1-0.7-0.3-1c-0.2-0.3-0.4-0.5-0.8-0.7c-0.4-0.2-0.9-0.5-1.7-0.7
			c-1.1-0.4-1.8-0.8-2.2-1.2c-0.4-0.4-0.6-1-0.6-1.7c0-0.8,0.3-1.4,0.9-1.9c0.6-0.5,1.4-0.7,2.4-0.7c1,0,1.9,0.2,2.8,0.6l-0.3,0.6
			c-0.9-0.4-1.7-0.6-2.5-0.6c-0.8,0-1.4,0.2-1.9,0.5s-0.7,0.9-0.7,1.5c0,0.4,0.1,0.7,0.2,1c0.1,0.3,0.4,0.5,0.7,0.7
			c0.3,0.2,0.9,0.4,1.7,0.7c0.8,0.3,1.4,0.6,1.9,0.8c0.4,0.3,0.7,0.6,0.9,0.9C358.9,77.3,359,77.7,359,78.2z"/>
		<path class="st1" d="M361.6,80.9V70.4h0.7v10.6H361.6z"/>
		<path class="st1" d="M373.4,80.9h-0.7l-6.3-9.4h-0.1c0.1,1.1,0.1,2,0.1,2.5v6.9h-0.7V70.4h0.7l6.3,9.4h0c0-0.9-0.1-1.7-0.1-2.5
			v-6.9h0.7V80.9z"/>
		<path class="st1" d="M382.5,80.9h-5.8V70.4h5.8V71h-5v4h4.8v0.7h-4.8v4.5h5V80.9z"/>
		<path class="st1" d="M391.2,78.2c0,0.9-0.3,1.6-1,2.1s-1.5,0.8-2.6,0.8c-1.3,0-2.3-0.1-3-0.4v-0.7c0.8,0.3,1.7,0.5,2.9,0.5
			c0.9,0,1.6-0.2,2.1-0.6s0.8-0.9,0.8-1.6c0-0.4-0.1-0.7-0.3-1c-0.2-0.3-0.4-0.5-0.8-0.7c-0.4-0.2-0.9-0.5-1.7-0.7
			c-1.1-0.4-1.8-0.8-2.2-1.2c-0.4-0.4-0.6-1-0.6-1.7c0-0.8,0.3-1.4,0.9-1.9c0.6-0.5,1.4-0.7,2.4-0.7c1,0,1.9,0.2,2.8,0.6l-0.3,0.6
			c-0.9-0.4-1.7-0.6-2.5-0.6c-0.8,0-1.4,0.2-1.9,0.5s-0.7,0.9-0.7,1.5c0,0.4,0.1,0.7,0.2,1c0.1,0.3,0.4,0.5,0.7,0.7
			c0.3,0.2,0.9,0.4,1.7,0.7c0.8,0.3,1.4,0.6,1.9,0.8c0.4,0.3,0.7,0.6,0.9,0.9C391.1,77.3,391.2,77.7,391.2,78.2z"/>
		<path class="st1" d="M399.6,78.2c0,0.9-0.3,1.6-1,2.1s-1.5,0.8-2.6,0.8c-1.3,0-2.3-0.1-3-0.4v-0.7c0.8,0.3,1.7,0.5,2.9,0.5
			c0.9,0,1.6-0.2,2.1-0.6c0.5-0.4,0.8-0.9,0.8-1.6c0-0.4-0.1-0.7-0.3-1c-0.2-0.3-0.4-0.5-0.8-0.7c-0.4-0.2-0.9-0.5-1.7-0.7
			c-1.1-0.4-1.8-0.8-2.2-1.2c-0.4-0.4-0.6-1-0.6-1.7c0-0.8,0.3-1.4,0.9-1.9c0.6-0.5,1.4-0.7,2.4-0.7c1,0,1.9,0.2,2.8,0.6l-0.3,0.6
			c-0.9-0.4-1.7-0.6-2.5-0.6c-0.8,0-1.4,0.2-1.9,0.5s-0.7,0.9-0.7,1.5c0,0.4,0.1,0.7,0.2,1c0.1,0.3,0.4,0.5,0.7,0.7
			c0.3,0.2,0.9,0.4,1.7,0.7c0.8,0.3,1.4,0.6,1.9,0.8c0.4,0.3,0.7,0.6,0.9,0.9C399.5,77.3,399.6,77.7,399.6,78.2z"/>
	</g>
	<g>
		<path class="st1" d="M64.8,22c0-1.3,1-2.3,2.3-2.3h13c9.2,0,15.3,4.9,15.3,12.9v0.1c0,8.8-7.3,13.3-16,13.3h-9.9v12.3
			c0,1.3-1,2.3-2.3,2.3c-1.2,0-2.3-1-2.3-2.3V22z M79.4,41.9c6.8,0,11.2-3.6,11.2-9v-0.1c0-5.8-4.4-8.9-10.9-8.9H69.4v17.9H79.4z"/>
		<path class="st1" d="M102.9,32.3c0-1.2,1-2.3,2.2-2.3c1.3,0,2.3,1,2.3,2.3V38c2.2-5,6.6-8,10.4-8c1.3,0,2.2,1,2.2,2.3
			c0,1.2-0.8,2.1-2,2.3c-5.8,0.7-10.6,5.1-10.6,13.7v10.3c0,1.2-0.9,2.3-2.2,2.3c-1.3,0-2.3-1-2.3-2.3V32.3z"/>
		<path class="st1" d="M126.5,20.9c0-1.5,1.2-2.4,2.6-2.4c1.5,0,2.7,0.9,2.7,2.4v0.8c0,1.4-1.2,2.4-2.7,2.4c-1.5,0-2.6-1-2.6-2.4
			V20.9z M126.9,32.3c0-1.2,1-2.3,2.2-2.3c1.3,0,2.3,1,2.3,2.3v26.1c0,1.3-0.9,2.3-2.2,2.3c-1.3,0-2.3-1-2.3-2.3V32.3z"/>
		<path class="st1" d="M141.8,32.3c0-1.2,1-2.3,2.2-2.3c1.3,0,2.3,1,2.3,2.3v3.1c2-3,4.7-5.7,9.7-5.7c4.9,0,8,2.6,9.7,6
			c2.2-3.3,5.4-6,10.6-6c6.9,0,11.2,4.7,11.2,12.1v16.7c0,1.3-1,2.3-2.2,2.3c-1.3,0-2.3-1-2.3-2.3V42.9c0-5.8-2.9-9.1-7.8-9.1
			c-4.5,0-8.3,3.4-8.3,9.3v15.4c0,1.3-1,2.3-2.3,2.3c-1.2,0-2.2-1-2.2-2.3V42.7c0-5.6-3-9-7.7-9c-4.8,0-8.4,4-8.4,9.5v15.2
			c0,1.3-0.9,2.3-2.2,2.3c-1.3,0-2.3-1-2.3-2.3V32.3z"/>
		<path class="st1" d="M194.9,51.7v-0.1c0-6.3,5.2-9.7,12.9-9.7c3.8,0,6.6,0.5,9.3,1.3v-1c0-5.4-3.3-8.2-9-8.2c-3,0-5.6,0.7-7.8,1.7
			c-0.3,0.1-0.6,0.2-0.8,0.2c-1,0-2-0.9-2-1.9c0-0.9,0.6-1.6,1.2-1.9c3-1.3,6-2,9.8-2c4.3,0,7.5,1.1,9.7,3.3c2,2,3.1,5,3.1,8.8v16.5
			c0,1.3-0.9,2.2-2.2,2.2c-1.3,0-2.2-0.9-2.2-2.1v-2.7c-2.1,2.7-5.6,5.2-10.9,5.2C200.6,61.1,194.9,57.9,194.9,51.7z M217.1,49.4
			v-2.9c-2.2-0.6-5.2-1.3-8.9-1.3c-5.6,0-8.8,2.4-8.8,6.2v0.1c0,3.8,3.5,6,7.6,6C212.6,57.5,217.1,54.2,217.1,49.4z"/>
		<path class="st1" d="M230.2,55.5c-0.5-0.3-0.9-1-0.9-1.7c0-1.3,1-2.3,2.2-2.3c0.6,0,1.1,0.2,1.4,0.5c3.8,3.3,7.7,4.8,12.9,4.8
			c5.5,0,9.1-2.9,9.1-6.9v-0.1c0-3.8-2-5.9-10.6-7.7c-9.4-2-13.7-5.1-13.7-11.8v-0.1c0-6.4,5.6-11.1,13.4-11.1c5.4,0,9.3,1.3,13,4
			c0.5,0.3,1,1,1,1.9c0,1.2-1,2.2-2.2,2.2c-0.5,0-0.9-0.1-1.3-0.4c-3.4-2.5-6.8-3.6-10.5-3.6c-5.3,0-8.7,2.9-8.7,6.6v0.1
			c0,3.8,2.1,6,11.1,7.9c9.1,2,13.3,5.3,13.3,11.5v0.1c0,7-5.8,11.5-13.9,11.5C239.7,61,234.8,59.2,230.2,55.5z"/>
		<path class="st1" d="M281.4,61.1c-8.3,0-15-6.3-15-15.7v-0.1c0-8.7,6.1-15.7,14.4-15.7c8.9,0,14,7.3,14,15.3c0,1.2-1,2.1-2.1,2.1
			h-21.8c0.6,6.5,5.2,10.2,10.6,10.2c3.7,0,6.5-1.5,8.7-3.5c0.3-0.3,0.8-0.5,1.3-0.5c1.1,0,2,0.9,2,1.9c0,0.5-0.2,1-0.7,1.5
			C289.9,59.3,286.5,61.1,281.4,61.1z M290.3,43.7c-0.5-5.5-3.6-10.3-9.6-10.3c-5.2,0-9.2,4.4-9.8,10.3H290.3z"/>
		<path class="st1" d="M302.7,32.3c0-1.2,1-2.3,2.2-2.3c1.3,0,2.3,1,2.3,2.3V38c2.2-5,6.6-8,10.4-8c1.3,0,2.2,1,2.2,2.3
			c0,1.2-0.8,2.1-2,2.3c-5.8,0.7-10.6,5.1-10.6,13.7v10.3c0,1.2-0.9,2.3-2.2,2.3c-1.3,0-2.3-1-2.3-2.3V32.3z"/>
		<path class="st1" d="M338.4,60.9h-0.2c-1.2,0-2-0.8-2.6-1.9l-11.3-25.5c-0.1-0.4-0.3-0.8-0.3-1.2c0-1.2,1-2.2,2.3-2.2
			c1.3,0,1.9,0.8,2.3,1.7l9.7,23.5l9.9-23.6c0.3-0.9,0.9-1.6,2.1-1.6c1.2,0,2.2,1,2.2,2.2c0,0.4-0.1,0.8-0.2,1.1L340.9,59
			C340.4,60.1,339.6,60.9,338.4,60.9z"/>
		<path class="st1" d="M360.3,20.9c0-1.5,1.2-2.4,2.6-2.4c1.5,0,2.7,0.9,2.7,2.4v0.8c0,1.4-1.2,2.4-2.7,2.4c-1.5,0-2.6-1-2.6-2.4
			V20.9z M360.7,32.3c0-1.2,1-2.3,2.2-2.3c1.3,0,2.3,1,2.3,2.3v26.1c0,1.3-0.9,2.3-2.2,2.3c-1.3,0-2.3-1-2.3-2.3V32.3z"/>
		<path class="st1" d="M374,57.2c-0.4-0.3-0.8-0.9-0.8-1.6c0-1,0.9-1.9,2-1.9c0.4,0,0.8,0.1,1.1,0.3c3.1,2.1,6.3,3.2,9.6,3.2
			c3.6,0,6.2-1.9,6.2-4.8v-0.1c0-3-3.6-4.2-7.5-5.3c-4.7-1.3-10-3-10-8.5v-0.1c0-5.2,4.3-8.6,10.3-8.6c3.2,0,6.7,1,9.6,2.6
			c0.6,0.3,1.1,1,1.1,1.9c0,1-0.9,1.9-2,1.9c-0.4,0-0.8-0.1-1-0.2c-2.6-1.5-5.3-2.3-7.9-2.3c-3.6,0-5.8,1.9-5.8,4.4v0.1
			c0,2.9,3.7,4,7.7,5.2c4.7,1.4,9.7,3.2,9.7,8.6V52c0,5.7-4.7,9-10.7,9C381.6,61,377.2,59.6,374,57.2z"/>
	</g>
</g>
</svg>
